<svg width="49" height="39" viewBox="0 0 49 39" fill="none" xmlns="http://www.w3.org/2000/svg">
<path d="M22.75 1.9H23.75V4.9C23.75 6.33333 23.7833 8.55 23.85 11.55C23.95 13.85 24 16.2333 24 18.7C24 19.8 23.9833 20.6167 23.95 21.15L23.9 23.6C23.8333 26.1 23.6833 28.1833 23.45 29.85C23.2167 31.4833 22.6667 33.0333 21.8 34.5C20.9333 35.9333 19.6 36.9833 17.8 37.65H17.85C16.3167 38.4833 14.3667 38.9 12 38.9C7.93333 38.9 5.01667 37.4833 3.25 34.65C1.51667 31.8167 0.65 28.3 0.65 24.1L0.7 22.2C1.2 22.0333 1.76667 21.9333 2.4 21.9C3.06667 21.8667 3.71667 21.85 4.35 21.85C6.41667 21.85 8.11667 22 9.45 22.3V23.15L10.45 23.3V24C10.45 24.1667 10.4833 24.6667 10.55 25.5C10.6167 26.3333 10.8 27 11.1 27.5C11.4333 28 11.8833 28.25 12.45 28.25C13.0833 28.25 13.55 27.9667 13.85 27.4C14.1833 26.8 14.4 26.0667 14.5 25.2C14.3667 21.3 14.3 16.5833 14.3 11.05C14.2667 10.65 14.25 10.0333 14.25 9.2C14.25 8.4 14.2833 7.2 14.35 5.6C14.4167 3.93333 14.45 2.68333 14.45 1.85V0.999999L22.75 0.899997V1.9ZM14.95 1.85C14.85 4.95 14.8 8.01667 14.8 11.05C14.8 16.3833 14.8667 21.1 15 25.2C14.9 26.2 14.6333 27.05 14.2 27.75C13.8 28.4167 13.2167 28.75 12.45 28.75C11.1833 28.75 10.3 28.2 9.8 27.1C9.33333 26 9.05 24.6333 8.95 23V22.7C7.38333 22.4667 5.85 22.35 4.35 22.35C3.15 22.35 2.1 22.4333 1.2 22.6C1.16667 22.9667 1.15 23.4833 1.15 24.15C1.15 27.1833 1.61667 29.9167 2.55 32.35C3.48333 34.7833 5.06667 36.3333 7.3 37C8.63333 37.2667 9.86667 37.4 11 37.4C13.1333 37.4 15.0167 37 16.65 36.2C18.35 35.5667 19.6 34.55 20.4 33.15C21.2333 31.75 21.75 30.25 21.95 28.65C22.1833 27.05 22.3333 25.0333 22.4 22.6C22.4 21.6667 22.4167 20.9833 22.45 20.55C22.4833 19.9833 22.4833 19.5 22.45 19.1C22.45 18.6667 22.45 18.3 22.45 18C22.45 15.5667 22.4 13.1833 22.3 10.85C22.2333 7.71667 22.2 5.4 22.2 3.9C22.2 2.8 22.2167 1.96666 22.25 1.4L14.95 1.5V1.85ZM40.9945 37.5H40.4445L38.2445 32.7C37.5445 31.2667 36.8612 29.8333 36.1945 28.4C35.5612 26.9333 35.0445 25.65 34.6445 24.55V30.05C34.6445 34.1167 34.6779 36.9 34.7445 38.4C34.0445 38.6333 33.1445 38.75 32.0445 38.75C31.4445 38.75 30.9112 38.7333 30.4445 38.7C30.0112 38.6667 29.6445 38.6333 29.3445 38.6C28.5112 38.5 27.6445 38.45 26.7445 38.45V37.45H25.7445V33.45C25.7445 31.35 25.7112 28.3 25.6445 24.3L25.5945 15.4C25.5945 10.1667 25.7612 5.56667 26.0945 1.6C26.8945 1.4 27.7945 1.3 28.7945 1.3C29.4945 1.3 30.4279 1.4 31.5945 1.6C32.7612 1.76667 33.3779 1.98333 33.4445 2.25C33.5445 2.61667 33.7279 2.86667 33.9945 3C34.2612 3.1 34.4112 3.18333 34.4445 3.25C35.0112 4.65 35.6612 6.15 36.3945 7.75C37.1279 9.35 38.1945 11.6167 39.5945 14.55V13.5C39.5945 12.6 39.5612 11.3833 39.4945 9.85L39.4445 6.25C39.4112 5.81667 39.4279 5.13333 39.4945 4.2L39.5445 2.45V1.35C40.7112 1.11666 42.0779 0.999999 43.6445 0.999999C44.8445 0.999999 46.1112 1.13333 47.4445 1.4V2.25L48.4445 2.4V18.9L48.4945 27.45L48.4445 30.3V35L48.4945 37L48.4445 38.4C48.3445 38.4333 48.1112 38.5 47.7445 38.6C47.3779 38.7 46.9112 38.75 46.3445 38.75C45.5445 38.75 44.6945 38.7 43.7945 38.6C42.7279 38.5333 41.9445 38.5 41.4445 38.5L40.9945 37.5ZM46.9945 36L46.9445 32L46.9945 26.45V22.15C46.9945 20.25 46.9779 18.8333 46.9445 17.9V1.8C46.0112 1.6 44.9112 1.5 43.6445 1.5C42.4112 1.5 41.2112 1.6 40.0445 1.8C39.9779 4 39.9445 5.48333 39.9445 6.25L39.9945 9.7C40.0612 11.3 40.0945 12.5667 40.0945 13.5C40.0945 14.1 40.0612 14.7 39.9945 15.3C39.9279 15.8667 39.8445 16.1833 39.7445 16.25C39.6779 16.25 39.0945 15.15 37.9945 12.95C36.8945 10.7167 36.0779 9.03333 35.5445 7.9C35.2779 7.26667 35.0112 6.68333 34.7445 6.15C34.4779 5.61667 34.2779 5.21667 34.1445 4.95L33.5945 3.8L32.9445 2.3C32.9445 2.16667 32.4112 2.05 31.3445 1.95C30.2779 1.85 29.4279 1.8 28.7945 1.8C27.8612 1.8 27.1112 1.86666 26.5445 2C26.2445 5.63333 26.0945 10.1 26.0945 15.4L26.1445 24.35C26.2112 28.2833 26.2445 31.3167 26.2445 33.45V36.95C27.0112 36.95 27.7945 37 28.5945 37.1C28.8612 37.1333 29.1945 37.1667 29.5945 37.2C29.9945 37.2333 30.4779 37.25 31.0445 37.25C31.8779 37.25 32.6112 37.1667 33.2445 37C33.2112 36.6333 33.1945 36 33.1945 35.1V32.85C33.1945 29.85 33.2279 26.9833 33.2945 24.25C33.3612 21.5167 33.4445 20.15 33.5445 20.15C33.6445 20.15 33.8612 20.65 34.1945 21.65L34.6945 23.15C35.3279 24.9167 36.6279 27.95 38.5945 32.25L40.7445 37C41.4779 37 42.2445 37.05 43.0445 37.15C44.1112 37.2167 44.8779 37.25 45.3445 37.25C45.9445 37.25 46.4945 37.1667 46.9945 37V36Z" fill="black"/>
</svg>
