<svg width="37" height="37" viewBox="0 0 37 37" fill="none" xmlns="http://www.w3.org/2000/svg">
<g clip-path="url(#clip0_17_65)">
<g opacity="0.1">
<path d="M4 2C4 0.89543 3.10457 0 2 0C0.89543 0 0 0.89543 0 2C0 3.10457 0.89543 4 2 4C3.10457 4 4 3.10457 4 2Z" fill="#FF6347"/>
<path d="M15 2C15 0.89543 14.1046 0 13 0C11.8954 0 11 0.89543 11 2C11 3.10457 11.8954 4 13 4C14.1046 4 15 3.10457 15 2Z" fill="#FF6347"/>
<path d="M26 2C26 0.89543 25.1046 0 24 0C22.8954 0 22 0.89543 22 2C22 3.10457 22.8954 4 24 4C25.1046 4 26 3.10457 26 2Z" fill="#FF6347"/>
<path d="M37 2C37 0.89543 36.1046 0 35 0C33.8954 0 33 0.89543 33 2C33 3.10457 33.8954 4 35 4C36.1046 4 37 3.10457 37 2Z" fill="#FF6347"/>
<path d="M4 13C4 11.8954 3.10457 11 2 11C0.89543 11 0 11.8954 0 13C0 14.1046 0.89543 15 2 15C3.10457 15 4 14.1046 4 13Z" fill="#FF6347"/>
<path d="M15 13C15 11.8954 14.1046 11 13 11C11.8954 11 11 11.8954 11 13C11 14.1046 11.8954 15 13 15C14.1046 15 15 14.1046 15 13Z" fill="#FF6347"/>
<path d="M26 13C26 11.8954 25.1046 11 24 11C22.8954 11 22 11.8954 22 13C22 14.1046 22.8954 15 24 15C25.1046 15 26 14.1046 26 13Z" fill="#FF6347"/>
<path d="M37 13C37 11.8954 36.1046 11 35 11C33.8954 11 33 11.8954 33 13C33 14.1046 33.8954 15 35 15C36.1046 15 37 14.1046 37 13Z" fill="#FF6347"/>
<path d="M4 24C4 22.8954 3.10457 22 2 22C0.89543 22 0 22.8954 0 24C0 25.1046 0.89543 26 2 26C3.10457 26 4 25.1046 4 24Z" fill="#FF6347"/>
<path d="M15 24C15 22.8954 14.1046 22 13 22C11.8954 22 11 22.8954 11 24C11 25.1046 11.8954 26 13 26C14.1046 26 15 25.1046 15 24Z" fill="#FF6347"/>
<path d="M26 24C26 22.8954 25.1046 22 24 22C22.8954 22 22 22.8954 22 24C22 25.1046 22.8954 26 24 26C25.1046 26 26 25.1046 26 24Z" fill="#FF6347"/>
<path d="M37 24C37 22.8954 36.1046 22 35 22C33.8954 22 33 22.8954 33 24C33 25.1046 33.8954 26 35 26C36.1046 26 37 25.1046 37 24Z" fill="#FF6347"/>
<path d="M4 35C4 33.8954 3.10457 33 2 33C0.89543 33 0 33.8954 0 35C0 36.1046 0.89543 37 2 37C3.10457 37 4 36.1046 4 35Z" fill="#FF6347"/>
<path d="M15 35C15 33.8954 14.1046 33 13 33C11.8954 33 11 33.8954 11 35C11 36.1046 11.8954 37 13 37C14.1046 37 15 36.1046 15 35Z" fill="#FF6347"/>
<path d="M26 35C26 33.8954 25.1046 33 24 33C22.8954 33 22 33.8954 22 35C22 36.1046 22.8954 37 24 37C25.1046 37 26 36.1046 26 35Z" fill="#FF6347"/>
<path d="M37 35C37 33.8954 36.1046 33 35 33C33.8954 33 33 33.8954 33 35C33 36.1046 33.8954 37 35 37C36.1046 37 37 36.1046 37 35Z" fill="#FF6347"/>
</g>
</g>
<defs>
<clipPath id="clip0_17_65">
<rect width="37" height="37" fill="white"/>
</clipPath>
</defs>
</svg>
