<svg width="317" height="317" viewBox="0 0 317 317" fill="none" xmlns="http://www.w3.org/2000/svg">
<g clip-path="url(#clip0_26_276)">
<path d="M216.317 272.079H166.391V303.64C166.391 309.467 171.114 314.143 176.894 314.143H234.739C240.566 314.143 245.241 309.414 245.241 303.64V14.4076C245.241 8.58085 240.515 3.90496 234.739 3.90496H176.894C171.064 3.90496 166.391 8.63393 166.391 14.4076V40.692H216.317C217.75 40.692 218.954 41.8484 218.954 43.3316C218.954 44.8149 217.801 45.9713 216.317 45.9713H166.391V61.7531H195.312C196.745 61.7531 197.952 62.9067 197.952 64.3927C197.952 65.8759 196.801 67.0323 195.312 67.0323H166.391V77.5349H216.317C217.75 77.5349 218.954 78.6914 218.954 80.1746C218.954 81.6606 217.801 82.8142 216.317 82.8142H166.391V98.5932H195.312C196.745 98.5932 197.952 99.7496 197.952 101.233C197.952 102.716 196.801 103.872 195.312 103.872H166.391V114.375H216.317C217.75 114.375 218.954 115.531 218.954 117.015C218.954 118.501 217.801 119.654 216.317 119.654H166.391V135.436H195.312C196.745 135.436 197.952 136.593 197.952 138.076C197.952 139.562 196.801 140.715 195.312 140.715H166.391V151.218H216.317C217.75 151.218 218.954 152.374 218.954 153.858C218.954 155.344 217.801 156.497 216.317 156.497H166.391V172.279H195.312C196.745 172.279 197.952 173.433 197.952 174.916C197.952 176.399 196.801 177.553 195.312 177.553H166.391V193.329H216.317C217.75 193.329 218.954 194.485 218.954 195.969C218.954 197.452 217.801 198.608 216.317 198.608H166.391V209.111H195.312C196.745 209.111 197.952 210.267 197.952 211.75C197.952 213.231 196.801 214.387 195.312 214.387H166.391V230.164H216.317C217.75 230.164 218.954 231.317 218.954 232.8C218.954 234.284 217.801 235.44 216.317 235.44H166.391V245.778H195.312C196.745 245.778 197.952 246.929 197.952 248.417C197.952 249.901 196.801 251.049 195.312 251.049H166.391V266.831H216.317C217.75 266.831 218.954 267.987 218.954 269.467C218.957 270.967 217.803 272.079 216.317 272.079ZM145.33 36.7871C145.33 16.4969 128.839 0 108.543 0C89.4063 0 73.6831 14.6282 71.9233 33.3234C71.8144 34.4798 71.7585 35.6335 71.7585 36.8429C71.7585 36.8988 71.7585 39.5384 71.7585 43.4406C71.7585 44.2646 71.7585 45.1445 71.7585 46.0802H74.3954H140.106H142.746C144.176 46.0802 145.383 44.9266 145.383 43.4406V36.7871H145.33ZM145.659 53.8873V56.5269C145.659 95.4006 145.659 228.418 145.659 248.434C145.659 250.082 132.132 275.925 132.132 275.925C131.693 276.802 130.758 277.355 129.766 277.355H108.817H108.599H87.6493C86.6605 277.355 85.7276 276.805 85.2834 275.925C85.2834 275.925 71.7585 250.082 71.7585 248.434C71.7585 228.418 71.7585 95.3475 71.7585 56.5269V53.8873C71.7585 52.4572 72.9122 51.2477 74.3954 51.2477H108.599H108.819H143.02C144.506 51.2505 145.659 52.4041 145.659 53.8873ZM127.847 282.249C128.341 283.073 128.341 284.065 127.903 284.836L113.498 312.162C112.065 314.858 111.02 317 108.384 317C105.744 317 104.643 314.855 103.213 312.162L87.9259 284.174C87.5404 283.35 87.5404 282.691 88.0348 281.867C88.532 281.098 89.356 280.875 90.2917 280.875H125.593C126.526 280.928 127.347 281.425 127.847 282.249Z" fill="#FF6347"/>
</g>
<defs>
<clipPath id="clip0_26_276">
<rect width="317" height="317" fill="white"/>
</clipPath>
</defs>
</svg>
